<svg version="1.2" xmlns="http://www.w3.org/2000/svg" viewBox="0 27 40 40" width="40" height="40">
	<title>file (1)</title>
	<style>
		.s0 { fill: #f93b3b } 
	</style>
	<g id="Layer 1">
		<path class="s0" d="m27.8 49.4q2.6 3.4 3.2 7.4c0.5 3-1.1 6-4.2 6.6-1.1 0.3-2.3 0.1-3.3-0.2-2.5-0.8-4.9-0.8-7.3-0.1-1.6 0.5-3.1 0.7-4.7 0-2.5-1.3-3.4-3.7-3-6.3q0.5-3.5 2.7-6.6c1.8-2.6 4.2-4.3 7.4-4.8 2.5-0.3 4.9 0.3 7 2 0.8 0.6 1.4 1.3 2.2 2z"/>
		<path class="s0" d="m28.4 31.9c2.9 2.5 3.2 7.5 1.3 10.3-1 1.6-2.4 2.6-4.3 2.4-2.1-0.3-3.3-1.7-4.1-3.5-0.9-2.5-0.8-4.8 0.2-7.1 1.3-2.7 4.1-3.9 6.9-2.1z"/>
		<path class="s0" d="m17.1 42.9c-0.9 1-1.9 1.7-3.3 1.7-2.1 0-3.5-1.2-4.3-2.9-1.3-3-1.3-5.9 0.5-8.6 1.9-2.8 5.7-2.8 7.5 0.2 1 1.5 1.4 3.1 1.3 4.8-0.1 1.7-0.6 3.4-1.7 4.8z"/>
		<path class="s0" d="m7.5 42.4c2.2 2.1 2.6 5.3 1.6 7.5-0.9 2.1-3.6 3.1-5.8 1.6-2.4-1.6-3.4-5.3-2.4-7.8 1.3-2.9 4.6-3.1 6.6-1.3z"/>
		<path class="s0" d="m29.9 47.2c0.1-2.5 1.1-4.5 3.2-5.5 2.7-1.3 5.1 0.1 5.7 2.9 0.5 1.8 0.1 3.7-0.9 5.2-1.3 2-3.5 3.3-5.9 1.9-1.3-0.8-1.9-2.1-2.1-3.5 0-0.3 0-0.6 0-1z"/>
	</g>
</svg>